<svg width="3151" height="1006" xmlns="http://www.w3.org/2000/svg" xmlns:xlink="http://www.w3.org/1999/xlink" xml:space="preserve" overflow="hidden"><defs><clipPath id="clip0"><rect x="28144" y="100" width="3151" height="1006"/></clipPath></defs><g clip-path="url(#clip0)" transform="translate(-28144 -100)"><rect x="28146" y="102" width="3146" height="1001" fill="#FFFFFF"/><g><path d="M28501.5 772.526 31165.5 772.526M28501.5 761.525 31165.5 761.525M28501.5 750.525 31165.5 750.525M28501.5 739.524 31165.5 739.524M28501.5 717.524 31165.5 717.524M28501.5 706.523 31165.5 706.523M28501.5 694.523 31165.5 694.523M28501.5 683.523 31165.5 683.523M28501.5 661.522 31165.5 661.522M28501.5 650.522 31165.5 650.522M28501.5 639.521 31165.5 639.521M28501.5 628.521 31165.5 628.521M28501.5 606.52 31165.5 606.52M28501.5 595.52 31165.5 595.52M28501.5 584.519 31165.5 584.519M28501.5 573.519 31165.5 573.519M28501.5 551.518 31165.5 551.518M28501.5 540.518 31165.5 540.518M28501.5 529.518 31165.5 529.518M28501.5 518.517 31165.5 518.517M28501.5 496.516 31165.5 496.516M28501.5 485.516 31165.5 485.516M28501.5 474.516 31165.5 474.516M28501.5 463.515 31165.5 463.515M28501.5 441.515 31165.5 441.515M28501.5 430.514 31165.5 430.514M28501.5 419.514 31165.5 419.514M28501.5 408.514 31165.5 408.514M28501.5 386.513 31165.5 386.513M28501.5 375.513 31165.5 375.513M28501.5 364.512 31165.5 364.512M28501.5 353.512 31165.5 353.512M28501.5 330.511 31165.5 330.511M28501.5 319.511 31165.5 319.511M28501.5 308.51 31165.5 308.51M28501.5 297.51 31165.5 297.51M28501.5 275.509 31165.5 275.509M28501.5 264.509 31165.5 264.509M28501.5 253.508 31165.5 253.508M28501.5 242.508 31165.5 242.508" stroke="#F2F2F2" stroke-width="3.4375" stroke-linejoin="round" stroke-miterlimit="10" fill="none"/></g><g><path d="M28501.5 783.5 31165.5 783.5M28501.5 728.524 31165.5 728.524M28501.5 672.522 31165.5 672.522M28501.5 617.52 31165.5 617.52M28501.5 562.519 31165.5 562.519M28501.5 507.517 31165.5 507.517M28501.5 452.515 31165.5 452.515M28501.5 397.513 31165.5 397.513M28501.5 341.511 31165.5 341.511M28501.5 286.51 31165.5 286.51M28501.5 231.5 31165.5 231.5" stroke="#BFBFBF" stroke-width="3.4375" stroke-linejoin="round" stroke-miterlimit="10" fill="none"/></g><g><path d="M28539.4 231.5 28539.4 783.5M28577.4 231.5 28577.4 783.5M28615.4 231.5 28615.4 783.5M28653.4 231.5 28653.4 783.5M28729.4 231.5 28729.4 783.5M28767.4 231.5 28767.4 783.5M28805.4 231.5 28805.4 783.5M28843.4 231.5 28843.4 783.5M28920.4 231.5 28920.4 783.5M28958.5 231.5 28958.5 783.5M28996.5 231.5 28996.5 783.5M29034.5 231.5 29034.5 783.5M29110.5 231.5 29110.5 783.5M29148.5 231.5 29148.5 783.5M29186.5 231.5 29186.5 783.5M29224.5 231.5 29224.5 783.5M29300.5 231.5 29300.5 783.5M29338.5 231.5 29338.5 783.5M29376.5 231.5 29376.5 783.5M29414.5 231.5 29414.5 783.5M29490.5 231.5 29490.5 783.5M29528.5 231.5 29528.5 783.5M29567.5 231.5 29567.5 783.5M29605.5 231.5 29605.5 783.5M29681.5 231.5 29681.5 783.5M29719.5 231.5 29719.5 783.5M29757.5 231.5 29757.5 783.5M29795.5 231.5 29795.5 783.5M29871.5 231.5 29871.5 783.5M29909.5 231.5 29909.5 783.5M29947.5 231.5 29947.5 783.5M29985.5 231.5 29985.5 783.5M30061.5 231.5 30061.5 783.5M30099.5 231.5 30099.5 783.5M30137.5 231.5 30137.5 783.5M30175.5 231.5 30175.5 783.5M30252.5 231.5 30252.5 783.5M30290.5 231.5 30290.5 783.5M30328.5 231.5 30328.5 783.5M30366.5 231.5 30366.5 783.5M30442.5 231.5 30442.5 783.5M30480.5 231.5 30480.5 783.5M30518.5 231.5 30518.5 783.5M30556.5 231.5 30556.5 783.5M30632.5 231.5 30632.5 783.5M30670.5 231.5 30670.5 783.5M30708.5 231.5 30708.5 783.5M30746.5 231.5 30746.5 783.5M30822.5 231.5 30822.5 783.5M30860.5 231.5 30860.5 783.5M30898.5 231.5 30898.5 783.5M30937.5 231.5 30937.5 783.5M31013.5 231.5 31013.5 783.5M31051.5 231.5 31051.5 783.5M31089.5 231.5 31089.5 783.5M31127.5 231.5 31127.5 783.5" stroke="#F2F2F2" stroke-width="3.4375" stroke-linejoin="round" stroke-miterlimit="10" fill="none"/></g><g><path d="M28691.4 231.5 28691.4 783.5M28882.4 231.5 28882.4 783.5M29072.5 231.5 29072.5 783.5M29262.5 231.5 29262.5 783.5M29452.5 231.5 29452.5 783.5M29643.5 231.5 29643.5 783.5M29833.5 231.5 29833.5 783.5M30023.5 231.5 30023.5 783.5M30213.5 231.5 30213.5 783.5M30404.5 231.5 30404.5 783.5M30594.5 231.5 30594.5 783.5M30784.5 231.5 30784.5 783.5M30975.5 231.5 30975.5 783.5M31165.5 231.5 31165.5 783.5" stroke="#D9D9D9" stroke-width="3.4375" stroke-linejoin="round" stroke-miterlimit="10" fill="none"/></g><g><rect x="28501.5" y="231.5" width="2664" height="552" stroke="#D9D9D9" stroke-width="3.4375" stroke-linejoin="round" stroke-miterlimit="10" fill="none"/></g><g><path d="M0 0 0.000360892 552" stroke="#D9D9D9" stroke-width="4.58333" stroke-linejoin="round" stroke-miterlimit="10" fill="none" fill-rule="evenodd" transform="matrix(1 0 0 -1 28501.5 783.5)"/></g><g><path d="M28501 242C29389 422.333 30277 602.667 31165 783" stroke="#000000" stroke-width="13.75" stroke-linecap="round" stroke-linejoin="round" stroke-miterlimit="10" fill="none"/></g><g><path d="M28501.5 245.5C28502.9 245.75 28511.4 246.994 28521.3 248.987 28566.9 258.231 28688.7 283.349 28775.1 300.964 28861.6 318.578 28994.1 345.418 29040 354.674 29045.1 355.707 29049.9 356.431 29050.3 356.497 29050.7 356.564 29055.3 357.249 29060.3 358.232 29104.9 366.977 29237.8 392.978 29317.7 408.972 29397.6 424.966 29497.7 445.626 29540 454.195 29555.6 457.366 29566.8 459.473 29571.3 460.383 29577.9 461.717 29592.2 464.426 29613.1 468.947 29651.5 477.279 29731.6 495.512 29801.9 510.375 29872.1 525.238 29993.8 549.783 30034.4 558.124 30040.1 559.29 30045.4 560.331 30045.8 560.42 30046.1 560.472 30049.7 561.125 30053.6 561.939 30100.3 571.781 30236.7 601.071 30326.3 619.469 30415.8 637.867 30543 662.703 30590.9 672.327 30602.3 674.628 30611.9 676.827 30613.7 677.211 30615.7 677.62 30625.4 679.722 30637 681.97 30683 690.812 30807.1 714.52 30889.3 730.265 30971.4 746.01 31084.2 767.568 31130 776.44 31147.3 779.78 31160.2 782.614 31164.5 783.5" stroke="#D86ECC" stroke-width="9.16667" stroke-linecap="round" stroke-linejoin="round" stroke-miterlimit="10" fill="none"/></g><g><path d="M28512.8 245.25C28512.8 251.325 28507.8 256.249 28501.8 256.249 28495.7 256.249 28490.8 251.325 28490.8 245.25 28490.8 239.175 28495.7 234.25 28501.8 234.25 28507.8 234.25 28512.8 239.175 28512.8 245.25Z" stroke="#D86ECC" stroke-width="4.58333" stroke-linejoin="round" stroke-miterlimit="10" stroke-opacity="0.968627" fill="#D86ECC"/><path d="M28532.8 249.25C28532.8 255.325 28527.8 260.25 28521.8 260.25 28515.7 260.25 28510.8 255.325 28510.8 249.25 28510.8 243.175 28515.7 238.25 28521.8 238.25 28527.8 238.25 28532.8 243.175 28532.8 249.25Z" stroke="#D86ECC" stroke-width="4.58333" stroke-linejoin="round" stroke-miterlimit="10" stroke-opacity="0.968627" fill="#D86ECC"/><path d="M28785.8 301.25C28785.8 307.325 28780.8 312.25 28774.8 312.25 28768.7 312.25 28763.8 307.325 28763.8 301.25 28763.8 295.175 28768.7 290.25 28774.8 290.25 28780.8 290.25 28785.8 295.175 28785.8 301.25Z" stroke="#D86ECC" stroke-width="4.58333" stroke-linejoin="round" stroke-miterlimit="10" stroke-opacity="0.968627" fill="#D86ECC"/><path d="M29050.8 354.25C29050.8 360.325 29045.8 365.249 29039.8 365.249 29033.7 365.249 29028.8 360.325 29028.8 354.25 29028.8 348.175 29033.7 343.25 29039.8 343.25 29045.8 343.25 29050.8 348.175 29050.8 354.25Z" stroke="#D86ECC" stroke-width="4.58333" stroke-linejoin="round" stroke-miterlimit="10" stroke-opacity="0.968627" fill="#D86ECC"/><path d="M29061.8 356.25C29061.8 362.325 29056.8 367.25 29050.8 367.25 29044.7 367.25 29039.8 362.325 29039.8 356.25 29039.8 350.175 29044.7 345.25 29050.8 345.25 29056.8 345.25 29061.8 350.175 29061.8 356.25Z" stroke="#D86ECC" stroke-width="4.58333" stroke-linejoin="round" stroke-miterlimit="10" stroke-opacity="0.968627" fill="#D86ECC"/><path d="M29071.8 358.25C29071.8 364.325 29066.8 369.25 29060.8 369.25 29054.7 369.25 29049.8 364.325 29049.8 358.25 29049.8 352.175 29054.7 347.25 29060.8 347.25 29066.8 347.25 29071.8 352.175 29071.8 358.25Z" stroke="#D86ECC" stroke-width="4.58333" stroke-linejoin="round" stroke-miterlimit="10" stroke-opacity="0.968627" fill="#D86ECC"/><path d="M29328.8 409.25C29328.8 415.325 29323.8 420.249 29317.8 420.249 29311.7 420.249 29306.8 415.325 29306.8 409.25 29306.8 403.175 29311.7 398.25 29317.8 398.25 29323.8 398.25 29328.8 403.175 29328.8 409.25Z" stroke="#D86ECC" stroke-width="4.58333" stroke-linejoin="round" stroke-miterlimit="10" stroke-opacity="0.968627" fill="#D86ECC"/><path d="M29550.8 454.25C29550.8 460.325 29545.8 465.249 29539.8 465.249 29533.7 465.249 29528.8 460.325 29528.8 454.25 29528.8 448.175 29533.7 443.25 29539.8 443.25 29545.8 443.25 29550.8 448.175 29550.8 454.25Z" stroke="#D86ECC" stroke-width="4.58333" stroke-linejoin="round" stroke-miterlimit="10" stroke-opacity="0.968627" fill="#D86ECC"/><path d="M29582.8 460.25C29582.8 466.325 29577.8 471.25 29571.8 471.25 29565.7 471.25 29560.8 466.325 29560.8 460.25 29560.8 454.175 29565.7 449.25 29571.8 449.25 29577.8 449.25 29582.8 454.175 29582.8 460.25Z" stroke="#D86ECC" stroke-width="4.58333" stroke-linejoin="round" stroke-miterlimit="10" stroke-opacity="0.968627" fill="#D86ECC"/><path d="M29623.8 469.25C29623.8 475.325 29618.8 480.25 29612.8 480.25 29606.7 480.25 29601.8 475.325 29601.8 469.25 29601.8 463.175 29606.7 458.25 29612.8 458.25 29618.8 458.25 29623.8 463.175 29623.8 469.25Z" stroke="#D86ECC" stroke-width="4.58333" stroke-linejoin="round" stroke-miterlimit="10" stroke-opacity="0.968627" fill="#D86ECC"/><path d="M29812.8 510.25C29812.8 516.325 29807.8 521.25 29801.8 521.25 29795.7 521.25 29790.8 516.325 29790.8 510.25 29790.8 504.175 29795.7 499.25 29801.8 499.25 29807.8 499.25 29812.8 504.175 29812.8 510.25Z" stroke="#D86ECC" stroke-width="4.58333" stroke-linejoin="round" stroke-miterlimit="10" stroke-opacity="0.968627" fill="#D86ECC"/><path d="M30045.8 558.25C30045.8 564.325 30040.8 569.25 30034.8 569.25 30028.7 569.25 30023.8 564.325 30023.8 558.25 30023.8 552.175 30028.7 547.25 30034.8 547.25 30040.8 547.25 30045.8 552.175 30045.8 558.25Z" stroke="#D86ECC" stroke-width="4.58333" stroke-linejoin="round" stroke-miterlimit="10" stroke-opacity="0.968627" fill="#D86ECC"/><path d="M30056.8 560.25C30056.8 566.325 30051.8 571.25 30045.8 571.25 30039.7 571.25 30034.8 566.325 30034.8 560.25 30034.8 554.175 30039.7 549.25 30045.8 549.25 30051.8 549.25 30056.8 554.175 30056.8 560.25Z" stroke="#D86ECC" stroke-width="4.58333" stroke-linejoin="round" stroke-miterlimit="10" stroke-opacity="0.968627" fill="#D86ECC"/><path d="M30064.8 561.25C30064.8 567.325 30059.8 572.25 30053.8 572.25 30047.7 572.25 30042.8 567.325 30042.8 561.25 30042.8 555.175 30047.7 550.25 30053.8 550.25 30059.8 550.25 30064.8 555.175 30064.8 561.25Z" stroke="#D86ECC" stroke-width="4.58333" stroke-linejoin="round" stroke-miterlimit="10" stroke-opacity="0.968627" fill="#D86ECC"/><path d="M30337.8 619.25C30337.8 625.325 30332.8 630.249 30326.8 630.249 30320.7 630.249 30315.8 625.325 30315.8 619.25 30315.8 613.175 30320.7 608.25 30326.8 608.25 30332.8 608.25 30337.8 613.175 30337.8 619.25Z" stroke="#D86ECC" stroke-width="4.58333" stroke-linejoin="round" stroke-miterlimit="10" stroke-opacity="0.968627" fill="#D86ECC"/><path d="M30601.8 672.25C30601.8 678.325 30596.8 683.249 30590.8 683.249 30584.7 683.249 30579.8 678.325 30579.8 672.25 30579.8 666.175 30584.7 661.25 30590.8 661.25 30596.8 661.25 30601.8 666.175 30601.8 672.25Z" stroke="#D86ECC" stroke-width="4.58333" stroke-linejoin="round" stroke-miterlimit="10" stroke-opacity="0.968627" fill="#D86ECC"/><path d="M30624.8 677.25C30624.8 683.325 30619.8 688.25 30613.8 688.25 30607.7 688.25 30602.8 683.325 30602.8 677.25 30602.8 671.175 30607.7 666.25 30613.8 666.25 30619.8 666.25 30624.8 671.175 30624.8 677.25Z" stroke="#D86ECC" stroke-width="4.58333" stroke-linejoin="round" stroke-miterlimit="10" stroke-opacity="0.968627" fill="#D86ECC"/><path d="M30647.8 681.25C30647.8 687.325 30642.8 692.25 30636.8 692.25 30630.7 692.25 30625.8 687.325 30625.8 681.25 30625.8 675.175 30630.7 670.25 30636.8 670.25 30642.8 670.25 30647.8 675.175 30647.8 681.25Z" stroke="#D86ECC" stroke-width="4.58333" stroke-linejoin="round" stroke-miterlimit="10" stroke-opacity="0.968627" fill="#D86ECC"/><path d="M30900.8 730.25C30900.8 736.325 30895.8 741.25 30889.8 741.25 30883.7 741.25 30878.8 736.325 30878.8 730.25 30878.8 724.175 30883.7 719.25 30889.8 719.25 30895.8 719.25 30900.8 724.175 30900.8 730.25Z" stroke="#D86ECC" stroke-width="4.58333" stroke-linejoin="round" stroke-miterlimit="10" stroke-opacity="0.968627" fill="#D86ECC"/><path d="M31140.8 776.25C31140.8 782.325 31135.8 787.25 31129.8 787.25 31123.7 787.25 31118.8 782.325 31118.8 776.25 31118.8 770.175 31123.7 765.25 31129.8 765.25 31135.8 765.25 31140.8 770.175 31140.8 776.25Z" stroke="#D86ECC" stroke-width="4.58333" stroke-linejoin="round" stroke-miterlimit="10" stroke-opacity="0.968627" fill="#D86ECC"/><path d="M31175.8 783.25C31175.8 789.325 31170.8 794.249 31164.8 794.249 31158.7 794.249 31153.8 789.325 31153.8 783.25 31153.8 777.175 31158.7 772.25 31164.8 772.25 31170.8 772.25 31175.8 777.175 31175.8 783.25Z" stroke="#D86ECC" stroke-width="4.58333" stroke-linejoin="round" stroke-miterlimit="10" stroke-opacity="0.968627" fill="#D86ECC"/></g><g><path d="M28501 242C28556.1 252.782 28612.1 263.763 28666.3 274.346 28720.5 284.929 28797.4 299.875 28826.1 305.498 28832.3 306.71 28837.5 307.89 28838.5 308.086 28839.5 308.305 28845.4 309.595 28852.3 310.958 28881.1 316.61 28966.6 333.313 29011.3 342.002 29055.9 350.691 29095.2 358.155 29120.1 363.091 29137.4 366.521 29140.2 367.618 29160.5 371.617 29189.6 377.371 29261.7 390.982 29294.9 397.618 29327.4 404.117 29328.5 405.222 29359.8 411.432 29391.8 417.772 29451.9 428.678 29487 435.659 29522.1 442.641 29538.4 446.847 29570.6 453.321 29602.8 459.795 29646.7 467.757 29680.1 474.502 29713.6 481.247 29738.3 487.146 29771.3 493.79 29804.2 500.433 29843 507.305 29877.8 514.366 29912.7 521.427 29945.7 529.068 29980.4 536.156 30015.2 543.244 30051.6 549.746 30086.6 556.892 30121.6 564.038 30156.1 572.023 30190.2 579.034 30224.3 586.044 30257.5 592.03 30291 598.955 30324.6 605.88 30359.9 613.987 30391.5 620.584 30423.1 627.18 30448.7 631.865 30480.7 638.535 30512.6 645.205 30552.6 654.213 30583.1 660.605 30613.2 666.911 30623.4 668.479 30663.7 676.886 30704.4 685.407 30799.7 705.799 30827.7 711.734 30829.6 712.13 30831.4 712.477 30831.5 712.495 30831.6 712.516 30833.6 712.922 30835.8 713.379 30863.9 719.309 30945.2 736.47 31000.1 748.074 31054.9 759.677 31110 771.358 31165 783" stroke="#00B0F0" stroke-width="10.3125" stroke-linecap="round" stroke-linejoin="round" stroke-miterlimit="10" stroke-dasharray="20.625 20.625" fill="none"/></g><g><path d="M28501.8 221.75 28501.8 262.75M28481.2 242.25 28522.2 242.25" stroke="#00B0F0" stroke-width="4.58333" stroke-linecap="square" stroke-linejoin="round" stroke-miterlimit="10" stroke-dasharray="13.75 4.58333" fill="#E97132"/><path d="M28666.8 253.75 28666.8 294.75M28646.2 274.25 28687.2 274.25" stroke="#00B0F0" stroke-width="4.58333" stroke-linecap="square" stroke-linejoin="round" stroke-miterlimit="10" stroke-dasharray="13.75 4.58333" fill="#E97132"/><path d="M28826.8 284.75 28826.8 325.75M28806.2 305.25 28847.2 305.25" stroke="#00B0F0" stroke-width="4.58333" stroke-linecap="square" stroke-linejoin="round" stroke-miterlimit="10" stroke-dasharray="13.75 4.58333" fill="#E97132"/><path d="M28838.8 287.75 28838.8 328.75M28818.2 308.25 28859.2 308.25" stroke="#00B0F0" stroke-width="4.58333" stroke-linecap="square" stroke-linejoin="round" stroke-miterlimit="10" stroke-dasharray="13.75 4.58333" fill="#E97132"/><path d="M28852.8 290.75 28852.8 331.75M28832.2 311.25 28873.2 311.25" stroke="#00B0F0" stroke-width="4.58333" stroke-linecap="square" stroke-linejoin="round" stroke-miterlimit="10" stroke-dasharray="13.75 4.58333" fill="#E97132"/><path d="M29011.8 321.75 29011.8 362.75M28991.2 342.25 29032.2 342.25" stroke="#00B0F0" stroke-width="4.58333" stroke-linecap="square" stroke-linejoin="round" stroke-miterlimit="10" stroke-dasharray="13.75 4.58333" fill="#E97132"/><path d="M29120.8 342.75 29120.8 383.75M29100.2 363.25 29141.2 363.25" stroke="#00B0F0" stroke-width="4.58333" stroke-linecap="square" stroke-linejoin="round" stroke-miterlimit="10" stroke-dasharray="13.75 4.58333" fill="#E97132"/><path d="M29160.8 350.75 29160.8 391.75M29140.2 371.25 29181.2 371.25" stroke="#00B0F0" stroke-width="4.58333" stroke-linecap="square" stroke-linejoin="round" stroke-miterlimit="10" stroke-dasharray="13.75 4.58333" fill="#E97132"/><path d="M29295.8 376.75 29295.8 417.75M29275.2 397.25 29316.2 397.25" stroke="#00B0F0" stroke-width="4.58333" stroke-linecap="square" stroke-linejoin="round" stroke-miterlimit="10" stroke-dasharray="13.75 4.58333" fill="#E97132"/><path d="M29360.8 390.75 29360.8 431.75M29340.2 411.25 29381.2 411.25" stroke="#00B0F0" stroke-width="4.58333" stroke-linecap="square" stroke-linejoin="round" stroke-miterlimit="10" stroke-dasharray="13.75 4.58333" fill="#E97132"/><path d="M29487.8 414.75 29487.8 455.75M29467.2 435.25 29508.2 435.25" stroke="#00B0F0" stroke-width="4.58333" stroke-linecap="square" stroke-linejoin="round" stroke-miterlimit="10" stroke-dasharray="13.75 4.58333" fill="#E97132"/><path d="M29570.8 432.75 29570.8 473.75M29550.2 453.25 29591.2 453.25" stroke="#00B0F0" stroke-width="4.58333" stroke-linecap="square" stroke-linejoin="round" stroke-miterlimit="10" stroke-dasharray="13.75 4.58333" fill="#E97132"/><path d="M29680.8 453.75 29680.8 494.75M29660.2 474.25 29701.2 474.25" stroke="#00B0F0" stroke-width="4.58333" stroke-linecap="square" stroke-linejoin="round" stroke-miterlimit="10" stroke-dasharray="13.75 4.58333" fill="#E97132"/><path d="M29771.8 472.75 29771.8 513.75M29751.2 493.25 29792.2 493.25" stroke="#00B0F0" stroke-width="4.58333" stroke-linecap="square" stroke-linejoin="round" stroke-miterlimit="10" stroke-dasharray="13.75 4.58333" fill="#E97132"/><path d="M29878.8 493.75 29878.8 534.75M29858.2 514.25 29899.2 514.25" stroke="#00B0F0" stroke-width="4.58333" stroke-linecap="square" stroke-linejoin="round" stroke-miterlimit="10" stroke-dasharray="13.75 4.58333" fill="#E97132"/><path d="M29980.8 515.75 29980.8 556.75M29960.2 536.25 30001.2 536.25" stroke="#00B0F0" stroke-width="4.58333" stroke-linecap="square" stroke-linejoin="round" stroke-miterlimit="10" stroke-dasharray="13.75 4.58333" fill="#E97132"/><path d="M30086.8 536.75 30086.8 577.75M30066.2 557.25 30107.2 557.25" stroke="#00B0F0" stroke-width="4.58333" stroke-linecap="square" stroke-linejoin="round" stroke-miterlimit="10" stroke-dasharray="13.75 4.58333" fill="#E97132"/><path d="M30190.8 558.75 30190.8 599.75M30170.2 579.25 30211.2 579.25" stroke="#00B0F0" stroke-width="4.58333" stroke-linecap="square" stroke-linejoin="round" stroke-miterlimit="10" stroke-dasharray="13.75 4.58333" fill="#E97132"/><path d="M30291.8 578.75 30291.8 619.75M30271.2 599.25 30312.2 599.25" stroke="#00B0F0" stroke-width="4.58333" stroke-linecap="square" stroke-linejoin="round" stroke-miterlimit="10" stroke-dasharray="13.75 4.58333" fill="#E97132"/><path d="M30391.8 599.75 30391.8 640.75M30371.2 620.25 30412.2 620.25" stroke="#00B0F0" stroke-width="4.58333" stroke-linecap="square" stroke-linejoin="round" stroke-miterlimit="10" stroke-dasharray="13.75 4.58333" fill="#E97132"/><path d="M30481.8 617.75 30481.8 658.75M30461.2 638.25 30502.2 638.25" stroke="#00B0F0" stroke-width="4.58333" stroke-linecap="square" stroke-linejoin="round" stroke-miterlimit="10" stroke-dasharray="13.75 4.58333" fill="#E97132"/><path d="M30583.8 639.75 30583.8 680.75M30563.2 660.25 30604.2 660.25" stroke="#00B0F0" stroke-width="4.58333" stroke-linecap="square" stroke-linejoin="round" stroke-miterlimit="10" stroke-dasharray="13.75 4.58333" fill="#E97132"/><path d="M30664.8 656.75 30664.8 697.75M30644.2 677.25 30685.2 677.25" stroke="#00B0F0" stroke-width="4.58333" stroke-linecap="square" stroke-linejoin="round" stroke-miterlimit="10" stroke-dasharray="13.75 4.58333" fill="#E97132"/><path d="M30828.8 690.75 30828.8 731.75M30808.2 711.25 30849.2 711.25" stroke="#00B0F0" stroke-width="4.58333" stroke-linecap="square" stroke-linejoin="round" stroke-miterlimit="10" stroke-dasharray="13.75 4.58333" fill="#E97132"/><path d="M30831.8 691.75 30831.8 732.75M30811.2 712.25 30852.2 712.25" stroke="#00B0F0" stroke-width="4.58333" stroke-linecap="square" stroke-linejoin="round" stroke-miterlimit="10" stroke-dasharray="13.75 4.58333" fill="#E97132"/><path d="M30836.8 692.75 30836.8 733.75M30816.2 713.25 30857.2 713.25" stroke="#00B0F0" stroke-width="4.58333" stroke-linecap="square" stroke-linejoin="round" stroke-miterlimit="10" stroke-dasharray="13.75 4.58333" fill="#E97132"/><path d="M31000.8 727.75 31000.8 768.75M30980.2 748.25 31021.2 748.25" stroke="#00B0F0" stroke-width="4.58333" stroke-linecap="square" stroke-linejoin="round" stroke-miterlimit="10" stroke-dasharray="13.75 4.58333" fill="#E97132"/><path d="M31165.8 762.75 31165.8 803.75M31145.2 783.25 31186.2 783.25" stroke="#00B0F0" stroke-width="4.58333" stroke-linecap="square" stroke-linejoin="round" stroke-miterlimit="10" stroke-dasharray="13.75 4.58333" fill="#E97132"/></g><g><text fill="#595959" font-family="Arial,Arial_MSFontService,sans-serif" font-weight="400" font-size="50" transform="matrix(1 0 0 1 28373.9 800)">0.0</text></g><g><text fill="#595959" font-family="Arial,Arial_MSFontService,sans-serif" font-weight="400" font-size="50" transform="matrix(1 0 0 1 28373.9 744)">5.0</text></g><g><text fill="#595959" font-family="Arial,Arial_MSFontService,sans-serif" font-weight="400" font-size="50" transform="matrix(1 0 0 1 28345.8 689)">10.0</text></g><g><text fill="#595959" font-family="Arial,Arial_MSFontService,sans-serif" font-weight="400" font-size="50" transform="matrix(1 0 0 1 28345.8 634)">15.0</text></g><g><text fill="#595959" font-family="Arial,Arial_MSFontService,sans-serif" font-weight="400" font-size="50" transform="matrix(1 0 0 1 28345.8 579)">20.0</text></g><g><text fill="#595959" font-family="Arial,Arial_MSFontService,sans-serif" font-weight="400" font-size="50" transform="matrix(1 0 0 1 28345.8 524)">25.0</text></g><g><text fill="#595959" font-family="Arial,Arial_MSFontService,sans-serif" font-weight="400" font-size="50" transform="matrix(1 0 0 1 28345.8 469)">30.0</text></g><g><text fill="#595959" font-family="Arial,Arial_MSFontService,sans-serif" font-weight="400" font-size="50" transform="matrix(1 0 0 1 28345.8 414)">35.0</text></g><g><text fill="#595959" font-family="Arial,Arial_MSFontService,sans-serif" font-weight="400" font-size="50" transform="matrix(1 0 0 1 28345.8 358)">40.0</text></g><g><text fill="#595959" font-family="Arial,Arial_MSFontService,sans-serif" font-weight="400" font-size="50" transform="matrix(1 0 0 1 28345.8 303)">45.0</text></g><g><text fill="#595959" font-family="Arial,Arial_MSFontService,sans-serif" font-weight="400" font-size="50" transform="matrix(1 0 0 1 28345.8 248)">50.0</text></g><g><text fill="#595959" font-family="Arial,Arial_MSFontService,sans-serif" font-weight="400" font-size="55" transform="matrix(1 0 0 1 28463.1 866)">0.0</text></g><g><text fill="#595959" font-family="Arial,Arial_MSFontService,sans-serif" font-weight="400" font-size="55" transform="matrix(1 0 0 1 28653.4 866)">0.5</text></g><g><text fill="#595959" font-family="Arial,Arial_MSFontService,sans-serif" font-weight="400" font-size="55" transform="matrix(1 0 0 1 28843.7 866)">1.0</text></g><g><text fill="#595959" font-family="Arial,Arial_MSFontService,sans-serif" font-weight="400" font-size="55" transform="matrix(1 0 0 1 29034 866)">1.5</text></g><g><text fill="#595959" font-family="Arial,Arial_MSFontService,sans-serif" font-weight="400" font-size="55" transform="matrix(1 0 0 1 29224.3 866)">2.0</text></g><g><text fill="#595959" font-family="Arial,Arial_MSFontService,sans-serif" font-weight="400" font-size="55" transform="matrix(1 0 0 1 29414.6 866)">2.5</text></g><g><text fill="#595959" font-family="Arial,Arial_MSFontService,sans-serif" font-weight="400" font-size="55" transform="matrix(1 0 0 1 29604.9 866)">3.0</text></g><g><text fill="#595959" font-family="Arial,Arial_MSFontService,sans-serif" font-weight="400" font-size="55" transform="matrix(1 0 0 1 29795.2 866)">3.5</text></g><g><text fill="#595959" font-family="Arial,Arial_MSFontService,sans-serif" font-weight="400" font-size="55" transform="matrix(1 0 0 1 29985.4 866)">4.0</text></g><g><text fill="#595959" font-family="Arial,Arial_MSFontService,sans-serif" font-weight="400" font-size="55" transform="matrix(1 0 0 1 30175.7 866)">4.5</text></g><g><text fill="#595959" font-family="Arial,Arial_MSFontService,sans-serif" font-weight="400" font-size="55" transform="matrix(1 0 0 1 30366 866)">5.0</text></g><g><text fill="#595959" font-family="Arial,Arial_MSFontService,sans-serif" font-weight="400" font-size="55" transform="matrix(1 0 0 1 30556.3 866)">5.5</text></g><g><text fill="#595959" font-family="Arial,Arial_MSFontService,sans-serif" font-weight="400" font-size="55" transform="matrix(1 0 0 1 30746.6 866)">6.0</text></g><g><text fill="#595959" font-family="Arial,Arial_MSFontService,sans-serif" font-weight="400" font-size="55" transform="matrix(1 0 0 1 30936.9 866)">6.5</text></g><g><text fill="#595959" font-family="Arial,Arial_MSFontService,sans-serif" font-weight="400" font-size="55" transform="matrix(1 0 0 1 31127.2 866)">7.0</text></g><g><text fill="#595959" font-family="Arial,Arial_MSFontService,sans-serif" font-weight="400" font-size="64" transform="matrix(6.12323e-17 -1 1 6.12323e-17 28281 795)">Poropressão (kPa)</text></g><g><text fill="#595959" font-family="Arial,Arial_MSFontService,sans-serif" font-weight="400" font-size="64" transform="matrix(1 0 0 1 29696.3 1082)">Base (m)</text></g><g><text fill="#595959" font-family="Arial,Arial_MSFontService,sans-serif" font-weight="700" font-size="64" transform="matrix(1 0 0 1 29472.3 196)">Nível  </text></g><g><text fill="#595959" font-family="Arial,Arial_MSFontService,sans-serif" font-weight="700" font-size="64" transform="matrix(1 0 0 1 29661.3 196)">-</text></g><g><text fill="#595959" font-family="Arial,Arial_MSFontService,sans-serif" font-weight="700" font-size="64" transform="matrix(1 0 0 1 29700.5 196)">H = 5,0m</text></g><g><rect x="28195.5" y="899.5" width="3068" height="123" stroke="#000000" stroke-width="3.4375" stroke-linejoin="round" stroke-miterlimit="10" fill="#FFFFFF"/></g><g><path d="M28285 961 28401 961" stroke="#000000" stroke-width="13.75" stroke-linecap="round" stroke-linejoin="round" stroke-miterlimit="10" fill="none" fill-rule="evenodd"/></g><g><text fill="#595959" font-family="Arial,Arial_MSFontService,sans-serif" font-weight="400" font-size="55" transform="matrix(1 0 0 1 28413.6 979)">UPLIFT PRESSURES - CADAM</text></g><g><path d="M29292.5 960.5 29408.5 960.5" stroke="#D86ECC" stroke-width="9.16667" stroke-linecap="round" stroke-linejoin="round" stroke-miterlimit="10" fill="none" fill-rule="evenodd"/></g><g><path d="M29361 960C29361 966.075 29356.1 970.999 29350 970.999 29343.9 970.999 29339 966.075 29339 960 29339 953.924 29343.9 949 29350 949 29356.1 949 29361 953.924 29361 960Z" stroke="#D86ECC" stroke-width="4.58333" stroke-linejoin="round" stroke-miterlimit="10" stroke-opacity="0.968627" fill="#D86ECC"/></g><g><text fill="#595959" font-family="Arial,Arial_MSFontService,sans-serif" font-weight="400" font-size="55" transform="matrix(1 0 0 1 29421.1 979)">Script Poropressure - 469 nos</text></g><g><path d="M30240 961 30355 961" stroke="#00B0F0" stroke-width="10.3125" stroke-linecap="round" stroke-linejoin="round" stroke-miterlimit="10" stroke-dasharray="20.625 20.625" fill="none" fill-rule="evenodd"/></g><g><path d="M30297.5 943.5 30297.5 976.5M30280.5 960.532 30313.5 960.532" stroke="#00B0F0" stroke-width="4.58333" stroke-linecap="square" stroke-linejoin="round" stroke-miterlimit="10" stroke-dasharray="13.75 4.58333" fill="#E97132"/></g><g><text fill="#595959" font-family="Arial,Arial_MSFontService,sans-serif" font-weight="400" font-size="55" transform="matrix(1 0 0 1 30367.8 979)">ABAQUS - Heat transfer- 469 nos</text></g><rect x="28146.5" y="102.5" width="3146" height="1001" stroke="#898989" stroke-width="4.58333" stroke-linejoin="round" stroke-miterlimit="10" fill="none"/></g></svg>